<svg width="209" height="178" viewBox="0 0 209 178" fill="none" xmlns="http://www.w3.org/2000/svg">
<rect x="36" y="41" width="136" height="137" rx="30" fill="#9A8C98"/>
<path d="M8.60365 87.2092C3.85198 80.4231 5.5012 71.0699 12.2873 66.3182L94.7122 8.60367C101.498 3.85201 110.851 5.50123 115.603 12.2873L118.471 16.3831C123.223 23.1691 121.573 32.5223 114.787 37.274L32.3625 94.9886C25.5764 99.7402 16.2232 98.091 11.4715 91.3049L8.60365 87.2092Z" fill="#9A8C98"/>
<rect width="130.622" height="35" rx="15" transform="matrix(-0.819152 -0.573576 -0.573576 0.819152 208.339 74.9219)" fill="#9A8C98"/>
<path d="M103.5 15L143.77 64.5H63.2298L103.5 15Z" fill="#9A8C98"/>
<path d="M138.635 129.16C138.319 128.539 137.822 128.029 137.21 127.697C136.598 127.366 135.899 127.229 135.208 127.305C133.418 127.599 131.607 127.748 129.793 127.752C120.704 127.752 111.988 124.133 105.561 117.691C99.1341 111.249 95.5236 102.512 95.5236 93.4021C95.5069 88.8317 96.4085 84.3047 98.1748 80.091C99.9412 75.8774 102.536 72.0634 105.804 68.8765C106.318 68.3673 106.658 67.7084 106.775 66.9941C106.893 66.2797 106.782 65.5464 106.459 64.8988C106.136 64.2512 105.617 63.7225 104.977 63.3882C104.336 63.0538 103.606 62.931 102.892 63.0371C96.4812 64.0222 90.3941 66.513 85.1273 70.3061C79.8606 74.0992 75.5636 79.0871 72.5871 84.8624C69.6106 90.6378 68.039 97.0369 68.0007 103.537C67.9624 110.038 69.4585 116.455 72.3668 122.265C75.275 128.075 79.513 133.114 84.7347 136.969C89.9564 140.824 96.0137 143.386 102.412 144.447C108.81 145.508 115.368 145.037 121.551 143.073C127.733 141.109 133.364 137.707 137.984 133.145C138.498 132.634 138.838 131.974 138.955 131.258C139.072 130.543 138.96 129.808 138.635 129.16Z" fill="white"/>
</svg>
